<svg xmlns="http://www.w3.org/2000/svg" width="96" height="96" viewBox="0 0 96 96" fill="none">
<defs>
  <linearGradient id="g" x1="18" y1="10" x2="78" y2="86" gradientUnits="userSpaceOnUse">
    <stop stop-color="#46D39A" stop-opacity="0.95"/>
    <stop offset="1" stop-color="#5BA2FF" stop-opacity="0.85"/>
  </linearGradient>
</defs>
<rect x="10" y="10" width="76" height="76" rx="22" fill="url(#g)" fill-opacity="0.18" stroke="rgba(255,255,255,0.18)" />
<path d="M57.5 28.5c-9.5 0-17.2 7.7-17.2 17.2 0 9.5 7.7 17.2 17.2 17.2 3.2 0 6.2-.9 8.8-2.4-3.8 5.8-10.4 9.6-17.9 9.6-11.8 0-21.4-9.6-21.4-21.4S36.6 24.3 48.4 24.3c7.5 0 14.1 3.8 17.9 9.6-2.6-1.5-5.6-2.4-8.8-2.4Z" fill="#46D39A"/>
<path d="M66.8 42.3l1.5 3.2 3.5.5-2.5 2.4.6 3.5-3.1-1.7-3.1 1.7.6-3.5-2.5-2.4 3.5-.5 1.5-3.2Z" fill="#5BA2FF"/>
</svg>
